:SAMPLES-PER-SECOND 24
:FULLY-SPECIFIED
:DEGREES
593
root  4.28432 42.0358 38.2093 -64.4231 -36.8558 77.1572
RightUpLeg  -21.4629 0.230248 -46.279
RightLeg  25.1351 1.33561 0.464127
RightFoot  4.10739 0.858395 -6.10598
RightToes  -2.08645e-008 3.77894e-005 6.81332e-007
Spine  22.3289 1.03925 7.73144
Spine1  -0.947621 7.00036 -26.7341
HEad  -9.65029 27.8547 -23.0373
LeftShoulder1  6.28027 -12.0944 -34.2521
LeftArm  10.1765 18.9752 -21.205
LeftForeArm  175.423 -60.5142 -162.972
LeftHand  0.516342 -5.31116 -5.28275
RightShoulder  2.62687 5.60938 22.6218
RightArm  27.1262 33.7607 37.0486
RightForeArm  30.1017 61.0596 17.699
RightHand  -0.305591 10.1307 -2.68884
LeftUpLeg  -66.2842 42.4769 22.3679
LeftLeg  93.588 -0.719522 4.92438
LeftFoot  -0.624121 1.46596 -15.6715
LeftToes  1.24767e-006 1.47042e-008 1.32732e-009
594
root  4.33549 42.2865 38.9868 -66.5264 -35.1047 80.6252
RightUpLeg  -23.1566 -0.339219 -48.4993
RightLeg  24.6165 -4.82927 -2.6286
RightFoot  6.54536 0.98431 -5.95928
RightToes  -2.08645e-008 3.77894e-005 6.81332e-007
Spine  22.862 1.22173 6.25698
Spine1  -1.99115 6.49412 -25.8957
HEad  -10.6217 27.7554 -23.3561
LeftShoulder1  5.98654 -11.7745 -33.1849
LeftArm  8.57085 21.6242 -21.0331
LeftForeArm  175.499 -58.455 -164.267
LeftHand  0.505901 -5.09917 -5.28822
RightShoulder  2.53235 5.52841 21.782
RightArm  26.4007 35.5888 34.6219
RightForeArm  29.3684 60.3259 17.181
RightHand  -0.204123 10.1103 -1.93152
LeftUpLeg  -62.6567 43.9921 30.0112
LeftLeg  78.15 2.04366 12.5386
LeftFoot  9.7609 2.89015 -15.6605
LeftToes  1.24767e-006 1.47042e-008 1.32732e-009
595
root  4.30285 42.3289 39.2956 -66.6274 -34.1237 81.8003
RightUpLeg  -23.9337 -0.0874166 -49.7953
RightLeg  24.5171 -7.77487 -4.07243
RightFoot  7.13426 1.02999 -6.02217
RightToes  -2.08645e-008 3.77894e-005 6.81332e-007
Spine  22.6705 1.02513 4.55811
Spine1  -2.16468 5.77679 -25.2934
HEad  -12.2203 27.5942 -23.0959
LeftShoulder1  5.94099 -11.7425 -32.9692
LeftArm  6.83264 22.3254 -20.0737
LeftForeArm  175.011 -57.2897 -164.894
LeftHand  0.465281 -4.78877 -5.00712
RightShoulder  2.50476 5.48589 21.5959
RightArm  23.795 35.225 31.5801
RightForeArm  29.0852 60.04 16.9851
RightHand  -0.181394 10.1387 -1.7617
LeftUpLeg  -52.7206 39.2334 41.1243
LeftLeg  52.9007 8.85797 12.7945
LeftFoot  22.6294 4.5572 -15.3124
LeftToes  1.24767e-006 1.47042e-008 1.32732e-009
596
root  4.15989 42.3787 39.5126 -66.6238 -33.7431 82.2848
RightUpLeg  -23.7834 -1.00143 -50.7309
RightLeg  24.1276 -6.33743 -3.31451
RightFoot  6.80328 0.921465 -5.46915
RightToes  -2.08645e-008 3.77894e-005 6.81332e-007
Spine  22.4806 0.486812 3.3278
Spine1  -2.19913 4.86284 -25.6322
HEad  -14.0943 27.9269 -22.4789
LeftShoulder1  5.93495 -11.7357 -32.9473
LeftArm  5.3654 21.6643 -19.9412
LeftForeArm  173.958 -57.2901 -164.806
LeftHand  0.381008 -4.26812 -4.30152
RightShoulder  2.55344 5.53926 21.9941
RightArm  20.6695 32.6491 27.9012
RightForeArm  28.7105 60.5425 17.4282
RightHand  -0.364611 9.14619 -3.29064
LeftUpLeg  -38.3183 19.2072 56.9199
LeftLeg  26.7723 17.1098 9.24136
LeftFoot  18.7331 2.62233 -9.8314
LeftToes  1.24767e-006 1.47042e-008 1.32732e-009
597
root  3.97446 42.4236 40.039 -68.0391 -33.6514 83.8194
RightUpLeg  -23.457 -1.46397 -51.9054
RightLeg  23.3501 -4.76356 -2.45637
RightFoot  6.07018 0.810941 -5.01609
RightToes  -2.08645e-008 3.77894e-005 6.81332e-007
Spine  22.6431 0.284923 2.08653
Spine1  -2.74785 3.96372 -25.3583
HEad  -15.6493 29.2625 -21.8592
LeftShoulder1  5.97768 -11.7665 -33.1477
LeftArm  4.33646 20.8657 -20.7714
LeftForeArm  173.13 -58.0328 -164.313
LeftHand  0.34376 -3.99643 -3.98624
RightShoulder  2.62501 5.61498 22.5805
RightArm  17.5974 28.6371 23.6694
RightForeArm  28.6233 61.2462 18.0239
RightHand  -0.396087 9.00832 -3.57181
LeftUpLeg  -32.6826 -2.25441 67.2732
LeftLeg  16.9164 26.7637 9.21199
LeftFoot  4.41239 0.59881 -4.95966
LeftToes  1.24767e-006 1.47042e-008 1.32732e-009
598
root  3.97386 42.1581 40.1405 -69.1555 -34.407 85.2771
RightUpLeg  -24.5507 0.193582 -51.464
RightLeg  23.9757 -6.07918 -3.16336
RightFoot  4.21048 0.846796 -5.98399
RightToes  -2.08645e-008 3.77894e-005 6.81332e-007
Spine  22.7367 0.208867 1.16577
Spine1  -2.34929 3.82894 -24.7611
HEad  -16.8175 31.1826 -22.027
LeftShoulder1  6.19457 -11.9858 -33.9859
LeftArm  3.89449 19.9782 -21.2882
LeftForeArm  173.278 -58.8638 -163.832
LeftHand  0.374185 -4.17925 -4.26416
RightShoulder  2.62264 5.53266 22.8318
RightArm  15.0145 23.9277 19.746
RightForeArm  28.9875 61.765 18.4363
RightHand  -0.345247 9.11975 -3.14777
LeftUpLeg  -33.573 3.83588 60.589
LeftLeg  17.5189 17.5534 6.33665
LeftFoot  3.80464 1.07355 -8.14303
LeftToes  1.24767e-006 1.47042e-008 1.32732e-009
599
root  3.94684 41.911 40.3599 -70.1293 -36.6514 86.1669
RightUpLeg  -24.8187 0.619793 -49.2803
RightLeg  23.6166 -6.21151 -3.1781
RightFoot  1.80734 0.825868 -7.04408
RightToes  -2.08645e-008 3.77894e-005 6.81332e-007
Spine  22.0183 -0.229939 2.41263
Spine1  -1.41447 3.7568 -24.1807
HEad  -18.5622 33.2795 -23.1487
LeftShoulder1  6.33038 -12.1071 -34.5394
LeftArm  3.99105 19.1451 -21.8616
LeftForeArm  174.145 -59.5981 -163.452
LeftHand  0.380168 -4.45357 -4.19805
RightShoulder  2.65094 5.50141 23.2722
RightArm  13.6847 18.9735 16.9582
RightForeArm  29.9818 62.3112 18.8159
RightHand  -0.178457 9.17827 -1.81377
LeftUpLeg  -35.0599 14.3454 50.9751
LeftLeg  21.1785 16.4227 7.19885
LeftFoot  10.7318 1.84744 -9.79214
LeftToes  1.24767e-006 1.47042e-008 1.32732e-009
600
root  3.84511 41.7255 40.4678 -71.1771 -39.8415 86.605
RightUpLeg  -24.5451 -1.48048 -45.2779
RightLeg  22.9167 -4.03693 -2.08197
RightFoot  -0.243683 0.832231 -8.56092
RightToes  -2.08645e-008 3.77894e-005 6.81332e-007
Spine  21.5316 -0.888264 4.12497
Spine1  -0.536521 3.52347 -23.6741
HEad  -21.3488 35.6564 -24.4862
LeftShoulder1  6.28742 -12.0466 -34.4232
LeftArm  4.18851 19.2519 -22.889
LeftForeArm  174.338 -60.1685 -163.104
LeftHand  0.36578 -4.6043 -3.95749
RightShoulder  2.82854 5.7338 24.5174
RightArm  13.0351 13.9385 15.4028
RightForeArm  30.9855 62.4897 18.8619
RightHand  -0.15621 9.23531 -1.63338
LeftUpLeg  -35.2245 14.3733 45.6742
LeftLeg  23.8303 21.6058 10.373
LeftFoot  8.17411 0.95825 -5.81487
LeftToes  1.24767e-006 1.47042e-008 1.32732e-009
601
root  3.6383 41.5227 40.4645 -71.7607 -43.002 87.0543
RightUpLeg  -24.933 -2.1056 -41.1943
RightLeg  23.1246 -3.72579 -1.95769
RightFoot  -1.85812 0.865352 -10.5468
RightToes  -2.08645e-008 3.77894e-005 6.81332e-007
Spine  20.628 -1.1267 4.49395
Spine1  0.00854727 3.16937 -22.028
HEad  -24.5834 38.04 -25.7437
LeftShoulder1  6.39653 -12.1651 -34.8069
LeftArm  4.28564 20.0569 -23.1694
LeftForeArm  173.043 -60.5906 -162.707
LeftHand  0.392615 -4.69913 -4.22285
RightShoulder  3.03084 5.98465 25.9052
RightArm  12.0186 8.22752 15.019
RightForeArm  31.7667 62.856 19.1121
RightHand  -0.26804 8.99875 -2.54681
LeftUpLeg  -34.3959 11.4161 40.3415
LeftLeg  22.4613 19.0988 8.78757
LeftFoot  3.01243 0.829512 -6.86966
LeftToes  1.24767e-006 1.47042e-008 1.32732e-009
